<svg width="189" height="67" viewBox="0 0 189 67" fill="none" xmlns="http://www.w3.org/2000/svg">
<path d="M0 40.2225C1.57035 42.4387 5.03045 43.8171 8.19777 43.8171C12.4297 43.8171 15.9165 41.4657 15.9165 37.4117C15.9165 33.1414 12.1902 32.3576 9.18257 31.709C6.73388 31.1684 5.42969 30.8982 5.42969 29.5468C5.42969 28.3036 6.6008 27.5468 8.27762 27.5468C10.3004 27.5468 11.8708 28.5198 13.0419 30.0333L15.7301 27.0603C14.3195 25.2495 11.7111 23.8171 8.4107 23.8171C4.33843 23.8171 1.09126 26.1955 1.09126 30.0063C1.09126 33.8982 4.17873 34.8441 7.00005 35.4657C9.90121 36.1144 11.5248 36.3306 11.5248 37.8711C11.5248 39.3306 10.2206 40.0873 8.38409 40.0873C6.33464 40.0873 4.23197 39.0603 2.74146 37.1144L0 40.2225Z" fill="black"/>
<path d="M31.2301 36.4117C31.2301 31.9792 28.3289 28.9792 24.2034 28.9792C20.0513 28.9792 17.1768 31.9792 17.1768 36.4117C17.1768 40.8441 20.0513 43.8171 24.2034 43.8171C28.3289 43.8171 31.2301 40.8441 31.2301 36.4117ZM21.4087 36.4117C21.4087 33.9252 22.5 32.5198 24.2034 32.5198C25.9069 32.5198 26.9981 33.9252 26.9981 36.4117C26.9981 38.8982 25.9069 40.3036 24.2034 40.3036C22.5 40.3036 21.4087 38.8982 21.4087 36.4117Z" fill="black"/>
<path d="M45.9813 29.2765H41.7227V37.5198C41.7227 39.1955 40.6048 40.0333 39.4337 40.0333C38.0496 40.0333 37.4375 39.1144 37.4375 37.6819V29.2765H33.1789V38.709C33.1789 41.8171 35.0686 43.8171 37.9432 43.8171C39.6999 43.8171 40.9508 43.0063 41.7227 42.1144V43.5198H45.9813V29.2765Z" fill="black"/>
<path d="M57.5595 29.2495C57.2933 29.2225 57.0272 29.1955 56.6279 29.1955C55.0043 29.1955 53.6469 30.0063 53.0081 31.1414V29.2765H48.7495V43.5198H53.0081V36.5198C53.0081 34.4657 54.472 33.3036 56.3085 33.3036C56.7876 33.3036 57.107 33.3306 57.5595 33.4117V29.2495Z" fill="black"/>
<path d="M62.372 36.4117C62.372 33.9792 63.4899 32.5468 65.2732 32.5468C66.6572 32.5468 67.4823 33.5738 67.7751 34.8982L71.4481 33.3846C70.836 31.0333 68.6534 28.9792 65.2466 28.9792C61.0944 28.9792 58.1667 32.0063 58.1667 36.4117C58.1667 40.7901 61.0944 43.8171 65.2466 43.8171C68.68 43.8171 70.8892 41.736 71.4748 39.3576L67.7751 37.8982C67.4823 39.2495 66.6572 40.2495 65.2732 40.2495C63.4899 40.2495 62.372 38.8171 62.372 36.4117Z" fill="black"/>
<path d="M79.413 43.8171C82.2077 43.8171 84.7629 42.3846 85.8009 39.6549L82.2343 38.4928C81.8351 39.736 80.7971 40.3846 79.4662 40.3846C77.8427 40.3846 76.6982 39.2765 76.4054 37.3306H85.9074V36.1955C85.9074 32.1684 83.5918 28.9792 79.3332 28.9792C75.2875 28.9792 72.3065 32.1684 72.3065 36.3846C72.3065 40.8171 75.181 43.8171 79.413 43.8171ZM79.2799 32.3306C80.8503 32.3306 81.6754 33.4117 81.702 34.6819H76.5385C76.9643 33.1144 77.9757 32.3306 79.2799 32.3306Z" fill="black"/>
<path d="M97.7224 24.1144H93.2775V43.5198H97.7224V24.1144Z" fill="black"/>
<path d="M100.63 43.5198H104.889V35.3846C104.889 33.709 106.033 32.8711 107.204 32.8711C108.588 32.8711 109.174 33.9252 109.174 35.3576V43.5198H113.433V34.1144C113.433 31.0063 111.623 28.9792 108.748 28.9792C106.965 28.9792 105.661 29.7901 104.889 30.709V29.2765H100.63V43.5198Z" fill="black"/>
<path d="M116.627 39.709C116.627 42.6279 118.144 43.6549 121.178 43.6549C122.19 43.6549 122.988 43.5738 123.733 43.4657V39.9252C123.254 39.9792 123.015 40.0063 122.509 40.0063C121.444 40.0063 120.832 39.7901 120.832 38.6009V32.8441H123.574V29.2765H120.832V25.3306H116.627V29.2765H114.843V32.8441H116.627V39.709Z" fill="black"/>
<path d="M132.021 43.8171C134.816 43.8171 137.371 42.3846 138.409 39.6549L134.843 38.4928C134.444 39.736 133.406 40.3846 132.075 40.3846C130.451 40.3846 129.307 39.2765 129.014 37.3306H138.516V36.1955C138.516 32.1684 136.2 28.9792 131.942 28.9792C127.896 28.9792 124.915 32.1684 124.915 36.3846C124.915 40.8171 127.79 43.8171 132.021 43.8171ZM131.888 32.3306C133.459 32.3306 134.284 33.4117 134.31 34.6819H129.147C129.573 33.1144 130.584 32.3306 131.888 32.3306Z" fill="black"/>
<path d="M149.26 29.2495C148.994 29.2225 148.728 29.1955 148.329 29.1955C146.705 29.1955 145.348 30.0063 144.709 31.1414V29.2765H140.45V43.5198H144.709V36.5198C144.709 34.4657 146.173 33.3036 148.009 33.3036C148.489 33.3036 148.808 33.3306 149.26 33.4117V29.2495Z" fill="black"/>
<path d="M151.133 43.5198H155.392V35.3846C155.392 33.709 156.536 32.8711 157.707 32.8711C159.092 32.8711 159.677 33.9252 159.677 35.3576V43.5198H163.936V34.1144C163.936 31.0063 162.126 28.9792 159.251 28.9792C157.468 28.9792 156.164 29.7901 155.392 30.709V29.2765H151.133V43.5198Z" fill="black"/>
<path d="M172.985 43.8171C175.78 43.8171 178.335 42.3846 179.373 39.6549L175.807 38.4928C175.407 39.736 174.369 40.3846 173.039 40.3846C171.415 40.3846 170.271 39.2765 169.978 37.3306H179.48V36.1955C179.48 32.1684 177.164 28.9792 172.906 28.9792C168.86 28.9792 165.879 32.1684 165.879 36.3846C165.879 40.8171 168.753 43.8171 172.985 43.8171ZM172.852 32.3306C174.423 32.3306 175.248 33.4117 175.274 34.6819H170.111C170.537 33.1144 171.548 32.3306 172.852 32.3306Z" fill="black"/>
<path d="M181.893 39.709C181.893 42.6279 183.411 43.6549 186.445 43.6549C187.456 43.6549 188.255 43.5738 189 43.4657V39.9252C188.521 39.9792 188.281 40.0063 187.776 40.0063C186.711 40.0063 186.099 39.7901 186.099 38.6009V32.8441H188.84V29.2765H186.099V25.3306H181.893V29.2765H180.11V32.8441H181.893V39.709Z" fill="black"/>
<path d="M97.4213 23.2403C102.737 31.8966 105.957 40.8955 106.891 48.4191C107.835 56.0266 106.413 61.775 102.941 64.4114C99.535 66.9981 94.3218 66.4196 88.3305 62.6963C82.401 59.0114 76.0453 52.4194 70.7276 43.76C65.4118 35.1037 62.1918 26.1047 61.2583 18.5812C60.3143 10.9737 61.7363 5.22528 65.2078 2.58891C68.614 0.00215233 73.8272 0.580716 79.8185 4.30398C85.7479 7.98883 92.1036 14.5809 97.4213 23.2403Z" stroke="#0052CC" stroke-width="2"/>
<path d="M97.7224 24.1144H93.2775V43.5198H97.7224V24.1144Z" fill="black"/>
<path d="M100.63 43.5198H104.889V35.3847C104.889 33.709 106.033 32.8711 107.204 32.8711C108.588 32.8711 109.174 33.9252 109.174 35.3576V43.5198H113.433V34.1144C113.433 31.0063 111.623 28.9792 108.748 28.9792C106.965 28.9792 105.661 29.7901 104.889 30.709V29.2765H100.63V43.5198Z" fill="black"/>
<path d="M116.627 39.709C116.627 42.6279 118.144 43.6549 121.178 43.6549C122.19 43.6549 122.988 43.5738 123.733 43.4657V39.9252C123.254 39.9792 123.015 40.0063 122.509 40.0063C121.444 40.0063 120.832 39.7901 120.832 38.6009V32.8441H123.574V29.2765H120.832V25.3306H116.627V29.2765H114.843V32.8441H116.627V39.709Z" fill="black"/>
<path d="M132.021 43.8171C134.816 43.8171 137.371 42.3847 138.409 39.6549L134.843 38.4928C134.444 39.736 133.406 40.3847 132.075 40.3847C130.451 40.3847 129.307 39.2765 129.014 37.3306H138.516V36.1955C138.516 32.1684 136.2 28.9792 131.942 28.9792C127.896 28.9792 124.915 32.1684 124.915 36.3847C124.915 40.8171 127.79 43.8171 132.021 43.8171ZM131.888 32.3306C133.459 32.3306 134.284 33.4117 134.31 34.6819H129.147C129.573 33.1144 130.584 32.3306 131.888 32.3306Z" fill="black"/>
<path d="M149.26 29.2495C148.994 29.2225 148.728 29.1955 148.329 29.1955C146.705 29.1955 145.348 30.0063 144.709 31.1414V29.2765H140.45V43.5198H144.709V36.5198C144.709 34.4657 146.173 33.3036 148.009 33.3036C148.489 33.3036 148.808 33.3306 149.26 33.4117V29.2495Z" fill="black"/>
<path d="M151.133 43.5198H155.392V35.3847C155.392 33.709 156.536 32.8711 157.707 32.8711C159.092 32.8711 159.677 33.9252 159.677 35.3576V43.5198H163.936V34.1144C163.936 31.0063 162.126 28.9792 159.251 28.9792C157.468 28.9792 156.164 29.7901 155.392 30.709V29.2765H151.133V43.5198Z" fill="black"/>
<path d="M172.985 43.8171C175.78 43.8171 178.335 42.3847 179.373 39.6549L175.807 38.4928C175.407 39.736 174.369 40.3847 173.039 40.3847C171.415 40.3847 170.271 39.2765 169.978 37.3306H179.48V36.1955C179.48 32.1684 177.164 28.9792 172.906 28.9792C168.86 28.9792 165.879 32.1684 165.879 36.3847C165.879 40.8171 168.753 43.8171 172.985 43.8171ZM172.852 32.3306C174.423 32.3306 175.248 33.4117 175.274 34.6819H170.111C170.537 33.1144 171.548 32.3306 172.852 32.3306Z" fill="black"/>
<path d="M181.893 39.709C181.893 42.6279 183.411 43.6549 186.445 43.6549C187.456 43.6549 188.255 43.5738 189 43.4657V39.9252C188.521 39.9792 188.281 40.0063 187.776 40.0063C186.711 40.0063 186.099 39.7901 186.099 38.6009V32.8441H188.84V29.2765H186.099V25.3306H181.893V29.2765H180.11V32.8441H181.893V39.709Z" fill="black"/>
</svg>
